<?xml version="1.0" standalone="no"?>
<!DOCTYPE svg PUBLIC "-//W3C//DTD SVG 20010904//EN"
 "http://www.w3.org/TR/2001/REC-SVG-20010904/DTD/svg10.dtd">
<svg version="1.0" xmlns="http://www.w3.org/2000/svg"
 width="224.000000pt" height="224.000000pt" viewBox="0 0 224.000000 224.000000"
 preserveAspectRatio="xMidYMid meet">
<metadata>
Created by potrace 1.11, written by Peter Selinger 2001-2013
</metadata>
<g transform="translate(0.000000,224.000000) scale(0.100000,-0.100000)"
fill="#000000" stroke="none">
<path d="M1055 2206 c-28 -12 -61 -51 -271 -311 -13 -16 -47 -59 -75 -95 -54
-69 -107 -134 -124 -153 -6 -7 -31 -39 -57 -72 -25 -33 -54 -70 -65 -82 -11
-12 -28 -34 -39 -48 -10 -15 -26 -35 -36 -46 -26 -32 -71 -88 -143 -179 -37
-47 -80 -101 -96 -120 -141 -170 -149 -184 -143 -220 3 -19 28 -82 55 -139
218 -462 596 -719 1054 -719 317 0 569 103 789 323 50 49 104 110 121 135 16
25 33 47 36 50 15 12 111 189 139 256 53 128 70 92 -196 424 -129 162 -243
304 -252 315 -9 11 -42 52 -72 90 -30 38 -62 79 -72 90 -16 20 -118 146 -141
175 -186 235 -255 314 -284 326 -40 17 -89 17 -128 0z m128 -97 c16 -20 17
-78 17 -903 0 -673 3 -885 12 -894 39 -39 217 11 345 95 70 45 206 179 253
247 l34 50 -22 60 c-11 34 -24 69 -27 79 -7 16 5 17 170 17 l176 0 -7 -22
c-12 -40 -75 -161 -121 -233 -174 -272 -437 -450 -723 -492 -69 -10 -269 -10
-335 -1 -338 50 -628 275 -802 623 -22 44 -44 90 -47 103 l-7 22 176 0 c165 0
177 -1 170 -17 -3 -10 -16 -46 -28 -80 l-21 -61 58 -76 c92 -120 221 -228 329
-276 98 -44 221 -62 245 -38 9 9 12 221 12 891 0 602 3 885 11 898 23 43 99
47 132 8z m-223 -649 l0 -520 -415 0 c-228 0 -415 3 -415 6 0 3 6 11 13 19 6
7 22 26 34 42 12 15 30 38 40 50 10 12 28 34 40 50 43 55 118 148 128 159 6 6
21 26 35 44 20 27 114 144 313 392 12 15 67 83 122 152 55 69 101 126 103 126
1 0 2 -234 2 -520z m624 145 c163 -204 302 -377 309 -385 6 -8 28 -35 47 -60
19 -25 37 -47 40 -50 14 -14 130 -160 130 -165 0 -3 -187 -5 -415 -5 l-415 0
0 522 c0 287 2 519 4 517 3 -2 138 -171 300 -374z m-624 -985 l0 -239 -32 5
c-93 18 -213 85 -303 171 -65 62 -135 147 -135 164 0 13 36 114 46 131 3 5 99
8 215 8 l209 0 0 -240z m766 176 c13 -33 24 -66 24 -74 0 -35 -147 -187 -240
-250 -58 -38 -144 -76 -197 -86 l-33 -6 0 240 0 240 211 -2 211 -3 24 -59z"/>
<path d="M670 1380 l-32 -40 81 0 81 0 0 40 0 40 -49 0 c-46 0 -52 -3 -81 -40z"/>
<path d="M490 1140 l-32 -40 171 0 171 0 0 40 0 40 -139 0 -139 0 -32 -40z"/>
<path d="M1440 1380 l0 -40 81 0 81 0 -32 40 c-29 37 -35 40 -81 40 l-49 0 0
-40z"/>
<path d="M1440 1140 l0 -40 171 0 171 0 -32 40 -32 40 -139 0 -139 0 0 -40z"/>
</g>
</svg>
