<svg width="223" height="55" viewBox="0 0 223 55" fill="none" xmlns="http://www.w3.org/2000/svg">
<path d="M71.2839 44.7297L74.9531 34.3074H89.362L93.0313 44.7297H96.3152L83.833 10.1351H80.4821L68 44.7297H71.2839ZM75.9584 31.4696L82.0403 14.2399H82.2749L88.3568 31.4696H75.9584Z" fill="black" fill-opacity="0.95"/>
<path d="M104.999 44.7297H108.082L114.181 23.4628H114.499L120.598 44.7297H123.681L131.455 18.7838H128.305L122.206 40.1351H121.972L115.94 18.7838H112.773L106.692 40.1858H106.474L100.375 18.7838H97.2253L104.999 44.7297Z" fill="black" fill-opacity="0.95"/>
<path d="M146.506 45.2703C151.666 45.2703 155.134 42.4493 156.307 39.1892L153.476 38.2601C152.487 40.5912 150.158 42.5169 146.506 42.5169C141.245 42.5169 137.911 38.6487 137.777 32.652H156.944V31.1655C156.944 22.5 151.633 18.4291 146.053 18.4291C139.385 18.4291 134.777 24.0541 134.777 31.9088C134.777 39.7804 139.301 45.2703 146.506 45.2703ZM137.793 30C138.112 25.1689 141.345 21.1655 146.053 21.1655C150.661 21.1655 153.894 25 153.894 30H137.793Z" fill="black" fill-opacity="0.95"/>
<path d="M163.549 44.7297H166.548V18.7838H163.549V44.7297ZM165.074 14.3243C166.297 14.3243 167.319 13.3446 167.319 12.1622C167.319 10.9628 166.297 10 165.074 10C163.851 10 162.846 10.9628 162.846 12.1622C162.846 13.3446 163.851 14.3243 165.074 14.3243Z" fill="black" fill-opacity="0.95"/>
<path d="M184.254 55C190.352 55 194.876 51.9932 194.876 45.4054V18.7838H191.961V23.7331H191.659C190.604 21.402 188.476 18.4291 183.751 18.4291C177.384 18.4291 173.112 23.8007 173.112 31.6892C173.112 39.6453 177.535 44.4595 183.701 44.4595C188.325 44.4595 190.587 41.7568 191.609 39.375H191.877V45.2196C191.877 50.0507 188.811 52.2973 184.254 52.2973C179.847 52.2973 177.736 50.152 176.647 48.1757L174.201 49.7973C175.709 52.7703 178.993 55 184.254 55ZM184.053 41.7061C178.942 41.7061 176.111 37.5845 176.111 31.6385C176.111 25.7939 178.892 21.1655 184.053 21.1655C189.096 21.1655 191.927 25.5574 191.927 31.6385C191.927 37.9054 189.012 41.7061 184.053 41.7061Z" fill="black" fill-opacity="0.95"/>
<path d="M206.329 28.5135C206.329 23.9865 209.345 21.1993 213.467 21.1993C217.454 21.1993 220.001 23.8345 220.001 28.1081V44.7297H223V27.9223C223 21.7399 219.448 18.4459 214.221 18.4459C210.334 18.4459 207.804 20.1689 206.597 22.8547H206.329V10.1351H203.347V44.7297H206.329V28.5135Z" fill="black" fill-opacity="0.95"/>
<path fill-rule="evenodd" clip-rule="evenodd" d="M24.4437 2.16895C24.473 2.11194 24.5038 2.0556 24.5359 2C24.7092 1.69981 24.9222 1.42092 25.1716 1.17157C25.9217 0.421427 26.9391 0 28 0C29.0609 0 30.0783 0.421427 30.8284 1.17157C31.0778 1.42092 31.2908 1.69981 31.4641 2C31.4962 2.0556 31.527 2.11194 31.5563 2.16895C31.6398 2.22483 31.7158 2.29393 31.7809 2.3753L55.7804 32.3747L43.6361 20.396L43.6358 20.3956L32 5.85078V8.91824V32H52.9194L43.6361 20.396L55.7809 32.3753L55.7823 32.3772C55.788 32.3843 55.7936 32.3915 55.799 32.3987C55.9643 32.6184 56.0309 32.8949 55.9867 33.1628C55.9797 33.2048 55.9701 33.2465 55.9577 33.2877L55.9544 33.2991L55.9387 33.3513C55.9251 33.3959 55.9053 33.4598 55.8789 33.5418C55.8262 33.7058 55.7474 33.9422 55.6401 34.2406C55.4257 34.8372 55.0974 35.683 54.6375 36.695C53.7188 38.7165 52.2688 41.4151 50.1414 44.1184C45.8774 49.5368 38.8625 55 28 55C17.1375 55 10.1226 49.5368 5.85856 44.1184C3.7312 41.4151 2.28117 38.7165 1.3625 36.695C0.902612 35.683 0.574334 34.8372 0.3599 34.2406C0.252648 33.9422 0.173768 33.7058 0.121058 33.5418C0.0947001 33.4598 0.0748765 33.3959 0.0613127 33.3513L0.0456239 33.2991L0.0422712 33.2877C-0.0512752 32.9766 0.0117338 32.6351 0.218466 32.3761L0.219415 32.375L24.2191 2.3753C24.2842 2.29393 24.3602 2.22483 24.4437 2.16895ZM30 6.94551V3.80524C29.9551 3.34379 29.7516 2.90976 29.4209 2.57911C29.044 2.20226 28.5329 1.99055 28 1.99055C27.4671 1.99055 26.956 2.20226 26.5791 2.57911C26.4071 2.75112 26.2695 2.95111 26.1707 3.16838C26.0796 3.36876 26.0216 3.58384 26 3.80524V33L26 33.0034V47C26 47.5523 25.5523 48 25 48C20.5392 48 16.8025 45.4698 14.2534 43.079C12.9657 41.8713 11.946 40.6667 11.2481 39.7644C10.8985 39.3125 10.628 38.9343 10.4435 38.6668C10.3512 38.533 10.2802 38.4267 10.2315 38.3525C10.2072 38.3154 10.1884 38.2863 10.1752 38.2658L10.1598 38.2416L10.1552 38.2344L10.1538 38.2321C10.1536 38.2318 10.1528 38.2306 11 37.6993L10.1528 38.2306C9.98759 37.9672 9.95433 37.6418 10.0629 37.3503L11.3105 34H2.40317C2.5948 34.5049 2.85238 35.1393 3.18331 35.8675C4.05398 37.7835 5.42614 40.3349 7.43025 42.8816C11.4292 47.9632 17.9142 53 28 53C38.0858 53 44.5708 47.9632 48.5697 42.8816C50.5739 40.3349 51.946 37.7835 52.8167 35.8675C53.1476 35.1393 53.4052 34.5049 53.5968 34H44.6895L45.9371 37.3503C46.0457 37.6418 46.0124 37.9672 45.8472 38.2306L45 37.6993C45.8472 38.2306 45.8464 38.2318 45.8462 38.2321L45.8448 38.2344L45.8402 38.2416L45.8248 38.2658C45.8116 38.2863 45.7928 38.3154 45.7685 38.3525C45.7198 38.4267 45.6488 38.533 45.5565 38.6668C45.372 38.9343 45.1015 39.3125 44.7519 39.7644C44.054 40.6667 43.0343 41.8713 41.7466 43.079C39.1975 45.4698 35.4608 48 31 48C30.4477 48 30 47.5523 30 47V33.0034C30 33.0023 30 33.0011 30 33V6.94551ZM32 34V45.9489C35.2925 45.6131 38.1883 43.6744 40.3784 41.6203C41.5699 40.5028 42.5189 39.3823 43.17 38.5407C43.4783 38.142 43.7184 37.8078 43.8843 37.5687L42.5553 34H32ZM13.4447 34H24V45.9489C20.7075 45.6131 17.8117 43.6744 15.6216 41.6203C14.4301 40.5028 13.4811 39.3823 12.83 38.5407C12.5217 38.142 12.2816 37.8078 12.1157 37.5687L13.4447 34ZM3.08063 32H24V5.85078L3.08063 32ZM17.5 20L16 22H20V20H17.5ZM11.5 28L13 26H20V28H11.5ZM40 22L38.5 20H36V22H40ZM44.5 28L43 26H36V28H44.5Z" fill="black" fill-opacity="0.95"/>
</svg>
